<svg width="99" height="130" viewBox="0 0 99 130" fill="none" xmlns="http://www.w3.org/2000/svg">
<mask id="path-1-inside-1_49_18" fill="white">
<path fill-rule="evenodd" clip-rule="evenodd" d="M99 25V105C99 118.807 76.8381 130 49.5 130C22.1619 130 0 118.807 0 105V25C0 11.1929 22.1619 0 49.5 0C76.8381 0 99 11.1929 99 25Z"/>
</mask>
<path fill-rule="evenodd" clip-rule="evenodd" d="M99 25V105C99 118.807 76.8381 130 49.5 130C22.1619 130 0 118.807 0 105V25C0 11.1929 22.1619 0 49.5 0C76.8381 0 99 11.1929 99 25Z" fill="white"/>
<path d="M97 25V105H101V25H97ZM49.5 132C63.415 132 76.1117 129.156 85.4034 124.463C94.5812 119.828 101 113.059 101 105H97C97 110.748 92.3379 116.479 83.6002 120.892C74.9764 125.248 62.9231 128 49.5 128V132ZM-2 105C-2 113.059 4.41884 119.828 13.5966 124.463C22.8883 129.156 35.585 132 49.5 132V128C36.0769 128 24.0236 125.248 15.3998 120.892C6.66212 116.479 2 110.748 2 105H-2ZM2 105V25H-2V105H2ZM49.5 -2C35.585 -2 22.8883 0.844307 13.5966 5.5371C4.41884 10.1723 -2 16.9413 -2 25H2C2 19.2515 6.66212 13.5206 15.3998 9.10756C24.0236 4.75213 36.0769 2 49.5 2V-2ZM101 25C101 16.9414 94.5812 10.1723 85.4034 5.5371C76.1117 0.844307 63.415 -2 49.5 -2V2C62.9231 2 74.9764 4.75213 83.6002 9.10756C92.3379 13.5206 97 19.2515 97 25H101Z" fill="black" mask="url(#path-1-inside-1_49_18)"/>
<path d="M60.9101 32.6527L17.9585 35.7633C17.9454 35.7642 17.9322 35.7653 17.9191 35.7666C17.8972 35.7694 17.8753 35.7727 17.8535 35.7764C17.8128 35.7815 17.7723 35.788 17.7321 35.7961C17.7156 35.8002 17.6992 35.8046 17.6829 35.8092C17.6642 35.8133 17.6456 35.8176 17.6271 35.8223C17.5861 35.8339 17.5456 35.8471 17.5057 35.8617C17.4792 35.872 17.4529 35.8829 17.4269 35.8945C17.4115 35.9009 17.3962 35.9074 17.381 35.9142C17.2928 35.9549 17.2082 36.0032 17.1283 36.0586C17.114 36.0671 17.0998 36.0759 17.0857 36.0848C17.0507 36.1109 17.0168 36.1382 16.984 36.1669C16.9773 36.1734 16.9708 36.1799 16.9643 36.1866C16.9361 36.2108 16.9087 36.236 16.8822 36.262C16.8654 36.2803 16.849 36.2989 16.833 36.3178C16.808 36.3454 16.7839 36.3739 16.7608 36.4031C16.752 36.4139 16.7432 36.4249 16.7346 36.4359C16.7092 36.47 16.6851 36.505 16.6624 36.5409C16.6557 36.5518 16.6492 36.5627 16.6427 36.5737C16.6206 36.6091 16.5998 36.6452 16.5804 36.682C16.5725 36.6972 16.5648 36.7125 16.5574 36.728C16.5394 36.7678 16.523 36.8083 16.5082 36.8494C16.506 36.8537 16.5038 36.8581 16.5016 36.8625C16.4678 36.9574 16.4425 37.0551 16.4262 37.1545C16.4226 37.172 16.4193 37.1895 16.4163 37.207C16.4101 37.2517 16.4058 37.2966 16.4032 37.3416V37.3481C16.4013 37.3787 16.4002 37.4093 16.3999 37.44V80.6803C16.3999 82.4034 16.9294 84.0883 17.9191 85.5005C17.945 85.5377 17.9724 85.5738 18.0012 85.6087L28.3732 98.0906C28.4733 98.2707 28.6056 98.4309 28.7637 98.5631L29.4199 99.3506C29.5032 99.451 29.5979 99.5412 29.7021 99.6197C30.6884 100.577 32.0527 101.142 33.5247 101.047L78.8847 98.1202C81.5208 97.9498 83.5999 95.731 83.5999 93.09V49.4231C83.5999 47.8717 82.87 46.4963 81.7591 45.5709C81.6805 45.4809 81.5925 45.3995 81.4966 45.3281L80.6829 44.7277C80.5811 44.6307 80.4675 44.5469 80.3449 44.4783L66.5046 34.2703C64.8932 33.0812 62.9068 32.5078 60.9101 32.6527ZM61.1529 36.0028C62.3514 35.9158 63.5438 36.2614 64.5096 36.9741L74.8094 44.5734L32.7668 47.3264C31.3193 47.4209 29.9032 46.8853 28.8752 45.8597H28.8719L21.8665 38.8509L61.1529 36.0028ZM19.7599 41.4956L26.4996 48.2353L28.1599 49.8956V92.5748L20.6655 83.5547C20.079 82.7118 19.7599 81.7101 19.7599 80.6803V41.4956ZM78.4516 47.7464C79.4448 47.6827 80.2399 48.4291 80.2399 49.4231V93.09C80.2399 93.9904 79.5669 94.7086 78.6682 94.7667L33.3082 97.6936C32.8149 97.7253 32.3706 97.5563 32.0482 97.2572L32.0449 97.2539L32.0416 97.2506C32.0348 97.2442 32.032 97.2342 32.0252 97.2277C32.0187 97.2188 32.0122 97.2101 32.0055 97.2014C31.7085 96.901 31.5199 96.491 31.5199 96.0169V52.35C31.5199 51.4471 32.1919 50.7314 33.0916 50.6733L78.4516 47.7464ZM72.6733 55.92L64.1487 56.3925C62.8483 56.5269 61.3333 57.4958 61.3333 59.07L65.1133 59.385V77.3466L52.0408 57.1833L42.243 57.7345C40.4101 57.8689 39.9101 59.2312 39.9101 60.9633H43.6901V87.1116C43.6901 87.1116 41.9222 87.5887 41.3308 87.7416C40.0742 88.0658 39.9101 89.1586 39.9101 89.9466C39.9101 89.9466 46.2143 89.6301 49.114 89.4117C52.4051 89.1597 52.5133 86.9541 52.5133 86.9541L48.7333 86.1666V66.7908C48.7333 66.7908 58.3425 82.2293 61.2808 86.767C62.6635 88.8989 63.6959 89.3166 65.5136 89.3166C67.0055 89.3166 68.4163 88.8759 70.1501 87.9384V58.7714C70.1501 58.7714 70.4694 58.7544 71.4757 58.4302C72.6231 58.0589 72.6733 57.0221 72.6733 55.92Z" fill="black"/>
<path d="M1 24C5.40909 56.483 94.0808 55.5133 98 24" stroke="#797777" stroke-width="1.25"/>
<path d="M1 82C5.40909 114.483 94.0808 113.513 98 82" stroke="#797777" stroke-width="1.25"/>
<path d="M1 53C5.40909 85.483 94.0808 84.5133 98 53" stroke="#797777" stroke-width="1.25"/>
<mask id="path-7-inside-2_49_18" fill="white">
<path fill-rule="evenodd" clip-rule="evenodd" d="M99 25V105C99 118.807 76.8381 130 49.5 130C22.1619 130 0 118.807 0 105V25C0 11.1929 22.1619 0 49.5 0C76.8381 0 99 11.1929 99 25Z"/>
</mask>
<path d="M97 25V105H101V25H97ZM49.5 132C63.415 132 76.1117 129.156 85.4034 124.463C94.5812 119.828 101 113.059 101 105H97C97 110.748 92.3379 116.479 83.6002 120.892C74.9764 125.248 62.9231 128 49.5 128V132ZM-2 105C-2 113.059 4.41884 119.828 13.5966 124.463C22.8883 129.156 35.585 132 49.5 132V128C36.0769 128 24.0236 125.248 15.3998 120.892C6.66212 116.479 2 110.748 2 105H-2ZM2 105V25H-2V105H2ZM49.5 -2C35.585 -2 22.8883 0.844307 13.5966 5.5371C4.41884 10.1723 -2 16.9413 -2 25H2C2 19.2515 6.66212 13.5206 15.3998 9.10756C24.0236 4.75213 36.0769 2 49.5 2V-2ZM101 25C101 16.9414 94.5812 10.1723 85.4034 5.5371C76.1117 0.844307 63.415 -2 49.5 -2V2C62.9231 2 74.9764 4.75213 83.6002 9.10756C92.3379 13.5206 97 19.2515 97 25H101Z" fill="black" mask="url(#path-7-inside-2_49_18)"/>
</svg>
